<?xml version="1.0" encoding="UTF-8"?>
<!DOCTYPE svg PUBLIC "-//W3C//DTD SVG 1.1//EN" "http://www.w3.org/Graphics/SVG/1.1/DTD/svg11.dtd">
<!-- Creator: CorelDRAW X8 -->
<svg xmlns="http://www.w3.org/2000/svg" xml:space="preserve" width="36.3146mm" height="11.2727mm" version="1.1" style="shape-rendering:geometricPrecision; text-rendering:geometricPrecision; image-rendering:optimizeQuality; fill-rule:evenodd; clip-rule:evenodd"
viewBox="0 0 686 213"
 xmlns:xlink="http://www.w3.org/1999/xlink">
 <defs>
  <style type="text/css">
   <![CDATA[
    .fil2 {fill:#015570}
    .fil0 {fill:#015570;fill-rule:nonzero}
    .fil1 {fill:#F9AE40;fill-rule:nonzero}
   ]]>
  </style>
 </defs>
 <g id="Capa_x0020_1">
  <metadata id="CorelCorpID_0Corel-Layer"/>
  <g id="_697350976">
   <path class="fil0" d="M100 98l-30 0 0 66c0,4 1,8 2,10 2,2 3,4 6,4 3,1 6,2 10,1 3,0 8,0 13,0l0 32c-4,1 -9,1 -14,1 -5,1 -11,1 -16,1 -5,0 -11,0 -15,-1 -5,-1 -9,-2 -13,-3 -5,-3 -10,-7 -14,-13 -4,-5 -5,-14 -5,-24l0 -74 -24 0 0 -31 24 0 0 -43 47 0 -1 43 30 0 0 31z"/>
   <polygon class="fil1" points="228,8 187,51 162,51 195,0 "/>
   <polygon class="fil0" points="268,24 312,24 312,213 268,213 "/>
   <polygon class="fil0" points="334,24 379,24 379,213 334,213 "/>
   <path class="fil0" d="M548 110l0 -35 132 0 0 21c0,7 -1,11 -2,14 -1,2 -3,4 -5,6 -1,1 -3,3 -7,6 -4,4 -8,8 -13,12 -5,5 -10,10 -15,14 -6,5 -11,10 -16,14 -4,4 -8,8 -12,11 -3,3 -5,5 -5,5l81 0 0 35 -144 0 0 -21c0,-3 0,-6 0,-8 1,-2 1,-4 2,-5 0,-2 1,-3 2,-4 1,-1 2,-2 3,-2 1,-1 3,-4 7,-7 4,-4 8,-8 13,-12 5,-5 10,-9 15,-14 6,-5 11,-10 16,-14 4,-4 8,-8 12,-11 3,-3 5,-5 5,-5l-69 0z"/>
   <path class="fil2" d="M148 75l89 0c6,0 11,5 11,11l0 21 -9 0 -72 0 0 20 72 0 0 34 -72 0 0 19 72 0 9 0 0 22c0,6 -5,11 -11,11l-89 0c-10,0 -19,-9 -19,-19l0 -99c0,-11 9,-20 19,-20z"/>
   <path class="fil2" d="M428 75l89 0c6,0 11,5 11,11l0 21 -9 0 -72 0 0 20 72 0 0 34 -72 0 0 19 72 0 9 0 0 22c0,6 -5,11 -11,11l-89 0c-11,0 -19,-9 -19,-19l0 -99c0,-11 8,-20 19,-20z"/>
  </g>
 </g>
</svg>
