<?xml version="1.0" encoding="UTF-8"?>
<!DOCTYPE svg PUBLIC "-//W3C//DTD SVG 1.1//EN" "http://www.w3.org/Graphics/SVG/1.1/DTD/svg11.dtd">
<!-- Creator: CorelDRAW X8 -->
<svg xmlns="http://www.w3.org/2000/svg" xml:space="preserve" width="45.8007mm" height="18.1204mm" version="1.1" style="shape-rendering:geometricPrecision; text-rendering:geometricPrecision; image-rendering:optimizeQuality; fill-rule:evenodd; clip-rule:evenodd"
viewBox="0 0 995 394"
 xmlns:xlink="http://www.w3.org/1999/xlink">
 <defs>
  <style type="text/css">
   <![CDATA[
    .fil1 {fill:#29156D}
    .fil0 {fill:#DA251B}
   ]]>
  </style>
 </defs>
 <g id="Capa_x0020_1">
  <metadata id="CorelCorpID_0Corel-Layer"/>
  <g id="_1113390848">
   <path class="fil0" d="M443 2c-126,7 -189,7 -318,29 -55,9 -93,16 -115,57 -15,29 -9,125 -9,165 0,31 3,51 19,68 34,37 75,39 127,46 145,19 254,30 406,26 109,-4 213,-12 317,-29 149,-24 123,-72 124,-223 0,-30 -3,-51 -19,-68 -34,-36 -76,-39 -127,-46 -127,-17 -277,-33 -405,-25zm-29 26c-67,5 -302,17 -354,46 -44,23 -33,70 -33,128 0,19 -2,63 1,80 10,46 69,51 104,57 246,38 495,38 741,-2 24,-3 44,-6 63,-16 16,-10 31,-24 32,-49 1,-20 1,-147 -1,-160 -10,-46 -69,-51 -103,-57 -130,-21 -322,-35 -450,-27z"/>
   <path class="fil1" d="M237 189l-14 -9c-6,2 -14,10 -16,16 4,10 6,6 11,15 -11,30 -29,-10 -40,-9 -5,2 -14,11 -16,16 -1,8 29,33 42,36 18,4 36,-23 44,-32 16,2 25,8 45,8l-2 16 27 1c4,-7 3,-10 4,-18 15,-1 23,0 36,-6 6,-3 8,-5 14,-8 5,-4 8,-7 13,-10 0,22 -2,45 -5,66 -7,50 -20,57 -3,59 15,1 17,-5 20,-15 14,-55 4,-73 37,-100 4,20 11,34 35,33 23,-1 30,-16 42,-27l32 -3c4,16 8,36 31,26 13,-5 23,-20 32,-30 13,9 17,8 34,5 6,40 56,29 80,13 14,-9 22,-19 31,-29 6,-7 24,-28 27,-35l12 1c-7,13 -48,47 -25,73 14,16 42,-4 53,-18 13,-17 7,-30 -11,-12 -5,4 -13,14 -18,8 -10,-16 37,-49 30,-68 -7,-5 -13,-4 -22,-4 8,-45 -40,-42 -41,-7 -1,17 20,22 -33,62 -8,6 -36,29 -48,16 -8,-12 21,-11 42,-38 10,-14 24,-49 -1,-55 -25,-6 -44,14 -53,26 -23,32 -10,49 -40,46 -3,-19 15,-62 -20,-53 -13,12 -3,26 -7,44 -2,11 -12,27 -23,26 -11,-27 30,-80 -2,-77 -35,3 -12,47 -36,60 -4,2 -9,3 -14,1 -2,-14 9,-30 3,-43 -5,-13 -6,1 -9,-16 -9,-42 -44,1 -61,18 -12,12 -32,40 -40,46 0,-12 1,-23 3,-34 1,-10 7,-28 2,-32 -5,-4 -14,-3 -21,-2 -5,8 -5,17 -7,27 -3,15 -3,14 -13,22 -14,10 -26,19 -49,20 3,-26 12,-57 19,-82 3,-8 12,-31 13,-37 2,-23 -19,-14 -29,-7 -34,22 -70,70 -95,110zm436 0c11,-3 15,-6 22,-13 7,-7 12,-12 12,-24 -16,-1 -32,20 -34,37zm-205 32c16,3 24,-8 29,-21 8,-19 -10,-12 -3,-39 -10,3 -36,34 -26,60zm-204 -21c13,3 18,7 35,8 5,-27 19,-71 21,-82 -10,5 -24,23 -31,34 -6,8 -22,31 -25,40z"/>
   <path class="fil1" d="M405 96c-17,9 -3,33 15,24 14,-7 5,-34 -15,-24z"/>
  </g>
 </g>
</svg>
