<?xml version="1.0" encoding="UTF-8"?>
<!DOCTYPE svg PUBLIC "-//W3C//DTD SVG 1.1//EN" "http://www.w3.org/Graphics/SVG/1.1/DTD/svg11.dtd">
<!-- Creator: CorelDRAW X8 -->
<svg xmlns="http://www.w3.org/2000/svg" xml:space="preserve" width="59.0989mm" height="15.9217mm" version="1.1" style="shape-rendering:geometricPrecision; text-rendering:geometricPrecision; image-rendering:optimizeQuality; fill-rule:evenodd; clip-rule:evenodd"
viewBox="0 0 3560 959"
 xmlns:xlink="http://www.w3.org/1999/xlink">
 <defs>
  <style type="text/css">
   <![CDATA[
    .fil1 {fill:#00002F}
    .fil0 {fill:#FC0100}
    .fil2 {fill:#FEFEFE}
   ]]>
  </style>
 </defs>
 <g id="Capa_x0020_1">
  <metadata id="CorelCorpID_0Corel-Layer"/>
  <g id="_1114998432">
   <path class="fil0" d="M0 958l353 0c8,-13 81,-98 98,-119l299 -359c8,-9 391,-465 398,-479 -107,-2 -219,0 -327,0 -36,0 -27,-2 -45,20l-539 646c-40,48 -79,95 -119,144l-89 107c-9,10 -28,27 -29,40z"/>
   <path class="fil1" d="M479 958c113,0 248,2 357,0 5,-10 194,-234 199,-240l348 -418c17,-21 33,-40 50,-60 17,-19 33,-40 50,-60l148 -178 -338 -1c-25,0 -22,4 -35,20l-326 392c-65,78 -139,164 -201,241l-152 182c-8,11 -97,114 -100,122z"/>
   <path class="fil1" d="M2113 958l97 0 1 -302 98 0 0 302 98 0c6,-17 0,-259 2,-301 16,-2 84,-3 92,4 11,11 6,76 6,96 0,29 -2,187 1,201l97 0c5,-19 1,-187 1,-222 0,-29 3,-82 -5,-107 -8,-27 -29,-49 -52,-60 -28,-14 -66,-10 -101,-10 -42,0 -318,-2 -334,1l-1 398z"/>
   <path class="fil1" d="M3560 957l0 -88c-12,-22 -4,-21 -27,-36 -19,-13 -107,-67 -115,-75l115 -73c19,-12 16,-18 27,-36l0 -89 -101 -1 0 60 -128 80c-10,-3 -26,-14 -34,-20 -11,-6 -22,-13 -33,-20l-64 -41 -1 -59 -100 0c-1,22 -2,65 0,86 3,26 21,37 39,48 18,11 35,22 53,33 12,7 44,25 53,33 -34,22 -72,45 -107,66 -19,11 -36,21 -38,48 -1,13 -1,76 1,85l99 0 1 -60 128 -80c10,3 24,14 34,20 31,18 65,42 97,60l0 60 101 -1z"/>
   <path class="fil1" d="M3054 957l0 -96c-25,-2 -165,0 -202,0 -120,0 -104,19 -104,-102 0,-120 -18,-103 102,-103 34,0 183,2 204,0l0 -96c-26,-3 -255,-1 -299,-1 -47,1 -78,25 -94,56 -16,33 -10,100 -10,142 0,40 -5,109 9,142 14,31 47,58 93,59 17,1 285,2 301,-1z"/>
   <path class="fil1" d="M2068 958l1 -97c-68,0 -136,0 -203,0 -120,0 -103,18 -103,-102 0,-120 -19,-103 101,-103 68,0 137,2 205,0l0 -97c-99,-2 -202,-1 -300,0 -48,1 -78,26 -93,57 -16,33 -10,99 -10,141 0,38 -5,111 9,141 15,33 46,59 92,60 49,2 100,0 150,0 50,0 101,1 151,0z"/>
   <path class="fil1" d="M1632 958l0 -97c-62,-4 -137,0 -200,0 -119,0 -101,17 -101,-102 0,-119 -19,-103 99,-103 44,0 168,2 202,0l0 -96c-46,-3 -100,-1 -147,-1 -50,0 -100,-1 -150,0 -46,1 -77,27 -92,58 -15,32 -10,100 -10,140 0,43 -5,106 11,140 14,30 44,59 89,61 29,1 278,2 299,0z"/>
   <polygon class="fil1" points="1844,800 1860,800 2056,800 2069,800 2069,717 2056,717 1862,717 1844,717 "/>
   <polygon class="fil1" points="2830,800 3054,800 3054,718 2830,717 "/>
   <path class="fil2" d="M3560 869l0 -220c-11,18 -8,24 -27,36l-115 73c8,8 96,62 115,75 23,15 15,14 27,36z"/>
  </g>
 </g>
</svg>
