<?xml version="1.0" encoding="UTF-8"?>
<!DOCTYPE svg PUBLIC "-//W3C//DTD SVG 1.1//EN" "http://www.w3.org/Graphics/SVG/1.1/DTD/svg11.dtd">
<!-- Creator: CorelDRAW X8 -->
<svg xmlns="http://www.w3.org/2000/svg" xml:space="preserve" width="53.9739mm" height="16.5827mm" version="1.1" style="shape-rendering:geometricPrecision; text-rendering:geometricPrecision; image-rendering:optimizeQuality; fill-rule:evenodd; clip-rule:evenodd"
viewBox="0 0 33002 10139"
 xmlns:xlink="http://www.w3.org/1999/xlink">
 <defs>
  <style type="text/css">
   <![CDATA[
    .fil1 {fill:black}
    .fil0 {fill:#FFBD17}
   ]]>
  </style>
 </defs>
 <g id="Capa_x0020_1">
  <metadata id="CorelCorpID_0Corel-Layer"/>
  <g id="_805072080">
   <polygon class="fil0" points="0,10139 33002,10139 33002,0 0,0 "/>
   <path class="fil1" d="M11743 7842l1867 1c57,-14 84,-221 105,-311 27,-118 53,-230 81,-346 159,-666 340,-1381 481,-2039l659 2694 1922 2c51,-16 191,-594 215,-678 63,-229 133,-464 197,-694l1180 -4194 -2020 0c-55,18 -139,545 -164,660 -48,225 -93,451 -142,678 -98,450 -193,905 -286,1359l-624 -2694 -1814 -3 -577 2696 -563 -2695 -2044 0 1527 5564z"/>
   <path class="fil1" d="M1422 7843l2552 0c1774,0 2814,-988 2817,-2764 3,-1770 -1016,-2802 -2782,-2802l-2583 0 -4 5566z"/>
   <path class="fil1" d="M17751 7840l2140 3 188 -846 1291 -1 205 847 2049 0 -1761 -5564 -2279 -2c-59,17 -213,583 -242,670 -456,1379 -903,2833 -1366,4194 -75,219 -165,477 -225,699z"/>
   <polygon class="fil1" points="1421,1925 1425,1992 31569,1992 31572,1427 31506,1418 1426,1420 "/>
   <polygon class="fil1" points="1421,8643 1422,8713 31570,8713 31570,8149 31506,8140 1390,8141 1421,8141 "/>
   <path class="fil1" d="M26997 3852l1232 0 3 3984c168,20 1793,7 2100,7l2 -3989 1238 -3 0 -1567 -4575 -6 0 1574z"/>
   <path class="fil1" d="M23852 7833c173,27 3357,10 3813,10l-2 -1659 -1715 0 0 -3906c-272,0 -1979,-18 -2096,10l0 5545z"/>
   <polygon class="fil1" points="7197,7843 10264,7843 10249,6710 8778,6710 8771,6240 10055,6235 10058,5089 8777,5089 8771,4619 10248,4614 10249,3469 7190,3469 "/>
   <path class="fil0" d="M3410 6173c865,77 1268,-357 1259,-1148 -9,-840 -385,-1210 -1253,-1146l-6 2294z"/>
   <polygon class="fil0" points="20366,5757 21078,5758 20735,4156 "/>
  </g>
 </g>
</svg>
