<?xml version="1.0" encoding="UTF-8"?>
<!DOCTYPE svg PUBLIC "-//W3C//DTD SVG 1.1//EN" "http://www.w3.org/Graphics/SVG/1.1/DTD/svg11.dtd">
<!-- Creator: CorelDRAW X8 -->
<svg xmlns="http://www.w3.org/2000/svg" xml:space="preserve" width="11.6367mm" height="15.5823mm" version="1.1" style="shape-rendering:geometricPrecision; text-rendering:geometricPrecision; image-rendering:optimizeQuality; fill-rule:evenodd; clip-rule:evenodd"
viewBox="0 0 96 128"
 xmlns:xlink="http://www.w3.org/1999/xlink">
 <defs>
  <style type="text/css">
   <![CDATA[
    .fil2 {fill:#FEFEFE}
    .fil1 {fill:#373435}
    .fil0 {fill:#EB2023}
   ]]>
  </style>
 </defs>
 <g id="Capa_x0020_1">
  <metadata id="CorelCorpID_0Corel-Layer"/>
  <g id="_1115651536">
   <path class="fil0" d="M17 88l0 2 18 10c2,1 3,2 4,3 1,0 7,4 7,4l1 -107c-1,0 -18,10 -19,11 -3,1 -6,3 -10,5 -1,1 -1,0 -1,2 0,23 0,47 0,70z"/>
   <path class="fil0" d="M49 3l0 69c1,-1 7,-4 7,-5 2,-1 3,-1 4,-2l18 -10 0 -38c-1,-1 -2,-2 -3,-2 -3,-2 -8,-5 -11,-7 -1,0 -14,-8 -15,-8l0 3z"/>
   <g>
    <path class="fil1" d="M83 116c-2,1 -4,1 -4,4 0,7 0,8 6,8 5,0 10,1 11,-3 0,-8 -1,-9 -6,-9 -2,0 -5,0 -7,0z"/>
    <path class="fil1" d="M4 128c0,-1 0,-2 0,-3 2,0 6,0 8,0 3,-1 3,-4 2,-6 0,-3 -3,-3 -6,-3 -2,0 -6,0 -8,0l0 12c0,0 1,0 2,0l1 0c0,0 0,0 0,0l1 0zm6 -6c1,0 1,-2 0,-3 -1,0 -5,0 -6,1l0 2c1,0 5,0 6,0z"/>
    <path class="fil1" d="M40 128l4 0c0,-1 0,-1 1,-2l7 0c1,1 1,1 2,2l4 0c-1,-1 -6,-10 -7,-12l-4 0c-1,0 -1,0 -1,1 -1,1 -6,10 -6,11zm7 -5l4 0c0,-1 -2,-3 -2,-4 -1,1 -2,3 -2,4z"/>
    <path class="fil2" d="M92 123c0,-4 -1,-4 -5,-4 -2,0 -4,0 -4,2 -1,4 1,4 6,4 2,0 3,0 3,-2z"/>
    <path class="fil1" d="M17 128c1,0 4,0 4,0 0,0 0,0 0,-1 0,-3 0,-8 0,-11 -1,0 -3,0 -4,0 0,2 0,11 0,12z"/>
    <polygon class="fil1" points="17,128 21,128 21,116 17,116 "/>
    <path class="fil1" d="M65 117c0,-1 1,-1 0,-1l-5 0c-1,1 -1,11 0,12l3 0c1,-1 1,-6 1,-8l0 0 7 8c0,0 2,0 2,0 1,0 2,0 3,0 0,-1 0,-11 0,-12l-3 0c-1,1 -1,7 -1,8l0 0c-1,-1 -6,-7 -7,-7z"/>
    <path class="fil1" d="M24 125c0,0 0,-1 0,2 0,0 0,1 0,1 0,0 13,0 14,0 0,-1 0,-2 0,-3l-6 0c-1,0 -2,0 -2,0l8 -6 0 -3c-2,0 -12,0 -14,0l0 3c2,1 6,0 8,0 0,1 -8,6 -8,6z"/>
    <path class="fil1" d="M10 122c-1,0 -5,0 -6,0l0 -2c1,-1 5,-1 6,-1l0 0c-1,0 -6,0 -6,0 0,1 0,0 0,2 0,0 0,1 0,1 0,0 4,0 5,0 1,0 1,0 1,0z"/>
   </g>
  </g>
 </g>
</svg>
